# xmcd CD database file
#
# Track frame offsets:
#	150
#	30759
#	64401
#	88715
#	107460
#	131892
#	154686
#	189588
#	224625
#	243007
#	272692
#
# Disc length: 3962 seconds
#
# Revision: 0
# Processed by: cddbd v1.5.2PL0 Copyright (c) Steve Scherf et al.
# Submitted via: CDex 1.50Beta7
#
DISCID=940f780b
DTITLE=Horace Silver - Supreme Jazz SACD
DYEAR=2006
DGENRE=Jazz
TTITLE0=Doodlin'
TTITLE1=Creepin' In
TTITLE2=Room 608
TTITLE3=Stop Time
TTITLE4=Wonder Why
TTITLE5=Moonray
TTITLE6=Stonewall
TTITLE7=Silver' Blue
TTITLE8=To Beat Or Not To Beat
TTITLE9=Shoutin' Out
TTITLE10=Hank's Time
EXTD=YEAR: 2006
EXTT0=
EXTT1=
EXTT2=
EXTT3=
EXTT4=
EXTT5=
EXTT6=
EXTT7=
EXTT8=
EXTT9=
EXTT10=
PLAYORDER=
